<svg width="130" height="24" viewBox="0 0 130 24" fill="none" xmlns="http://www.w3.org/2000/svg">
<g clip-path="url(#clip0_1404_19)">
<g clip-path="url(#clip1_1404_19)">
<path d="M8.25 1.125C8.25 0.501562 7.74844 0 7.125 0C6.50156 0 6 0.501562 6 1.125V3C4.34531 3 3 4.34531 3 6H1.125C0.501562 6 0 6.50156 0 7.125C0 7.74844 0.501562 8.25 1.125 8.25H3V10.875H1.125C0.501562 10.875 0 11.3766 0 12C0 12.6234 0.501562 13.125 1.125 13.125H3V15.75H1.125C0.501562 15.75 0 16.2516 0 16.875C0 17.4984 0.501562 18 1.125 18H3C3 19.6547 4.34531 21 6 21V22.875C6 23.4984 6.50156 24 7.125 24C7.74844 24 8.25 23.4984 8.25 22.875V21H10.875V22.875C10.875 23.4984 11.3766 24 12 24C12.6234 24 13.125 23.4984 13.125 22.875V21H15.75V22.875C15.75 23.4984 16.2516 24 16.875 24C17.4984 24 18 23.4984 18 22.875V21C19.6547 21 21 19.6547 21 18H22.875C23.4984 18 24 17.4984 24 16.875C24 16.2516 23.4984 15.75 22.875 15.75H21V13.125H22.875C23.4984 13.125 24 12.6234 24 12C24 11.3766 23.4984 10.875 22.875 10.875H21V8.25H22.875C23.4984 8.25 24 7.74844 24 7.125C24 6.50156 23.4984 6 22.875 6H21C21 4.34531 19.6547 3 18 3V1.125C18 0.501562 17.4984 0 16.875 0C16.2516 0 15.75 0.501562 15.75 1.125V3H13.125V1.125C13.125 0.501562 12.6234 0 12 0C11.3766 0 10.875 0.501562 10.875 1.125V3H8.25V1.125ZM7.5 6H16.5C17.3297 6 18 6.67031 18 7.5V16.5C18 17.3297 17.3297 18 16.5 18H7.5C6.67031 18 6 17.3297 6 16.5V7.5C6 6.67031 6.67031 6 7.5 6ZM16.5 7.5H7.5V16.5H16.5V7.5Z" fill="#2563EB"/>
</g>
</g>
<path d="M126.342 17.0801C126.342 16.8783 126.283 16.696 126.166 16.5332C126.049 16.3704 125.831 16.2207 125.512 16.084C125.199 15.9408 124.747 15.8105 124.154 15.6934C123.62 15.5762 123.122 15.4297 122.66 15.2539C122.204 15.0716 121.807 14.8535 121.469 14.5996C121.137 14.3457 120.876 14.0462 120.688 13.7012C120.499 13.3496 120.404 12.9492 120.404 12.5C120.404 12.0573 120.499 11.6406 120.688 11.25C120.883 10.8594 121.16 10.5143 121.518 10.2148C121.882 9.90885 122.325 9.67122 122.846 9.50195C123.373 9.32617 123.965 9.23828 124.623 9.23828C125.541 9.23828 126.329 9.38477 126.986 9.67773C127.65 9.9707 128.158 10.3743 128.51 10.8887C128.868 11.3965 129.047 11.9759 129.047 12.627H126.234C126.234 12.3535 126.176 12.1094 126.059 11.8945C125.948 11.6732 125.772 11.5007 125.531 11.377C125.297 11.2467 124.991 11.1816 124.613 11.1816C124.301 11.1816 124.031 11.237 123.803 11.3477C123.575 11.4518 123.399 11.5951 123.275 11.7773C123.158 11.9531 123.1 12.1484 123.1 12.3633C123.1 12.526 123.132 12.6725 123.197 12.8027C123.269 12.9264 123.383 13.0404 123.539 13.1445C123.695 13.2487 123.897 13.3464 124.145 13.4375C124.398 13.5221 124.711 13.6003 125.082 13.6719C125.844 13.8281 126.524 14.0332 127.123 14.2871C127.722 14.5345 128.197 14.873 128.549 15.3027C128.9 15.7259 129.076 16.2826 129.076 16.9727C129.076 17.4414 128.972 17.8711 128.764 18.2617C128.555 18.6523 128.256 18.9941 127.865 19.2871C127.475 19.5736 127.006 19.7982 126.459 19.9609C125.919 20.1172 125.31 20.1953 124.633 20.1953C123.65 20.1953 122.816 20.0195 122.133 19.668C121.456 19.3164 120.941 18.8704 120.59 18.3301C120.245 17.7832 120.072 17.2233 120.072 16.6504H122.738C122.751 17.0345 122.849 17.3438 123.031 17.5781C123.22 17.8125 123.458 17.9818 123.744 18.0859C124.037 18.1901 124.353 18.2422 124.691 18.2422C125.056 18.2422 125.359 18.1934 125.6 18.0957C125.84 17.9915 126.023 17.8548 126.146 17.6855C126.277 17.5098 126.342 17.3079 126.342 17.0801Z" fill="#1E293B"/>
<path d="M108.959 17.2656L111.156 9.43359H112.943L112.367 12.5098L110.17 20H108.676L108.959 17.2656ZM107.846 9.43359L109.418 17.2559L109.564 20H107.807L105.131 9.43359H107.846ZM114.955 17.1289L116.488 9.43359H119.213L116.537 20H114.789L114.955 17.1289ZM113.188 9.43359L115.375 17.207L115.678 20H114.174L111.977 12.5195L111.42 9.43359H113.188Z" fill="#1E293B"/>
<path d="M100.004 20.1953C99.1836 20.1953 98.4479 20.0651 97.7969 19.8047C97.1458 19.5378 96.5924 19.1699 96.1367 18.7012C95.6875 18.2324 95.3424 17.6888 95.1016 17.0703C94.8607 16.4453 94.7402 15.7812 94.7402 15.0781V14.6875C94.7402 13.8867 94.8542 13.1543 95.082 12.4902C95.3099 11.8262 95.6354 11.25 96.0586 10.7617C96.4883 10.2734 97.0091 9.89909 97.6211 9.63867C98.2331 9.37174 98.9232 9.23828 99.6914 9.23828C100.44 9.23828 101.104 9.36198 101.684 9.60938C102.263 9.85677 102.748 10.2083 103.139 10.6641C103.536 11.1198 103.835 11.6667 104.037 12.3047C104.239 12.9362 104.34 13.6393 104.34 14.4141V15.5859H95.9414V13.7109H101.576V13.4961C101.576 13.1055 101.505 12.7572 101.361 12.4512C101.225 12.1387 101.016 11.8913 100.736 11.709C100.456 11.5267 100.098 11.4355 99.6621 11.4355C99.291 11.4355 98.972 11.5169 98.7051 11.6797C98.4382 11.8424 98.2201 12.0703 98.0508 12.3633C97.888 12.6562 97.7643 13.0013 97.6797 13.3984C97.6016 13.7891 97.5625 14.2188 97.5625 14.6875V15.0781C97.5625 15.5013 97.6211 15.8919 97.7383 16.25C97.862 16.6081 98.0345 16.9173 98.2559 17.1777C98.4837 17.4382 98.7572 17.64 99.0762 17.7832C99.4017 17.9264 99.7695 17.998 100.18 17.998C100.688 17.998 101.16 17.9004 101.596 17.7051C102.038 17.5033 102.419 17.2005 102.738 16.7969L104.105 18.2812C103.884 18.6003 103.581 18.9062 103.197 19.1992C102.82 19.4922 102.364 19.7331 101.83 19.9219C101.296 20.1042 100.688 20.1953 100.004 20.1953Z" fill="#1E293B"/>
<path d="M92.7676 5.78125V20H89.8379L84.125 10.4688V20H81.1953V5.78125H84.125L89.8477 15.3223V5.78125H92.7676Z" fill="#1E293B"/>
<path d="M72.5527 5V20H69.7402V5H72.5527ZM72.1523 14.3457H71.3809C71.3874 13.61 71.485 12.9329 71.6738 12.3145C71.8626 11.6895 72.1328 11.1491 72.4844 10.6934C72.8359 10.2311 73.2559 9.87305 73.7441 9.61914C74.2389 9.36523 74.7858 9.23828 75.3848 9.23828C75.9056 9.23828 76.3776 9.31315 76.8008 9.46289C77.2305 9.60612 77.5983 9.84049 77.9043 10.166C78.2168 10.485 78.4577 10.9049 78.627 11.4258C78.7962 11.9466 78.8809 12.5781 78.8809 13.3203V20H76.0488V13.3008C76.0488 12.832 75.9805 12.4642 75.8438 12.1973C75.7135 11.9238 75.5215 11.7318 75.2676 11.6211C75.0202 11.5039 74.7142 11.4453 74.3496 11.4453C73.946 11.4453 73.6009 11.5202 73.3145 11.6699C73.0345 11.8197 72.8099 12.028 72.6406 12.2949C72.4714 12.5553 72.3477 12.8613 72.2695 13.2129C72.1914 13.5645 72.1523 13.9421 72.1523 14.3457Z" fill="#1E293B"/>
<path d="M63.7441 17.998C64.0892 17.998 64.3952 17.9329 64.6621 17.8027C64.929 17.666 65.1374 17.4772 65.2871 17.2363C65.4434 16.9889 65.5247 16.6992 65.5312 16.3672H68.1777C68.1712 17.1094 67.9727 17.7702 67.582 18.3496C67.1914 18.9225 66.6673 19.375 66.0098 19.707C65.3522 20.0326 64.6165 20.1953 63.8027 20.1953C62.9824 20.1953 62.2663 20.0586 61.6543 19.7852C61.0488 19.5117 60.5443 19.1341 60.1406 18.6523C59.737 18.1641 59.4342 17.5977 59.2324 16.9531C59.0306 16.3021 58.9297 15.6055 58.9297 14.8633V14.5801C58.9297 13.8314 59.0306 13.1348 59.2324 12.4902C59.4342 11.8392 59.737 11.2728 60.1406 10.791C60.5443 10.3027 61.0488 9.92188 61.6543 9.64844C62.2598 9.375 62.9694 9.23828 63.7832 9.23828C64.6491 9.23828 65.4076 9.4043 66.0586 9.73633C66.7161 10.0684 67.2305 10.5436 67.6016 11.1621C67.9792 11.7741 68.1712 12.5 68.1777 13.3398H65.5312C65.5247 12.9883 65.4499 12.6693 65.3066 12.3828C65.1699 12.0964 64.9681 11.8685 64.7012 11.6992C64.4408 11.5234 64.1185 11.4355 63.7344 11.4355C63.3242 11.4355 62.9889 11.5234 62.7285 11.6992C62.4681 11.8685 62.2663 12.1029 62.123 12.4023C61.9798 12.6953 61.8789 13.0306 61.8203 13.4082C61.7682 13.7793 61.7422 14.1699 61.7422 14.5801V14.8633C61.7422 15.2734 61.7682 15.6673 61.8203 16.0449C61.8724 16.4225 61.9701 16.7578 62.1133 17.0508C62.263 17.3438 62.4681 17.5749 62.7285 17.7441C62.9889 17.9134 63.3275 17.998 63.7441 17.998Z" fill="#1E293B"/>
<path d="M53.4414 20.1953C52.6211 20.1953 51.8854 20.0651 51.2344 19.8047C50.5833 19.5378 50.0299 19.1699 49.5742 18.7012C49.125 18.2324 48.7799 17.6888 48.5391 17.0703C48.2982 16.4453 48.1777 15.7812 48.1777 15.0781V14.6875C48.1777 13.8867 48.2917 13.1543 48.5195 12.4902C48.7474 11.8262 49.0729 11.25 49.4961 10.7617C49.9258 10.2734 50.4466 9.89909 51.0586 9.63867C51.6706 9.37174 52.3607 9.23828 53.1289 9.23828C53.8776 9.23828 54.5417 9.36198 55.1211 9.60938C55.7005 9.85677 56.1855 10.2083 56.5762 10.6641C56.9733 11.1198 57.2728 11.6667 57.4746 12.3047C57.6764 12.9362 57.7773 13.6393 57.7773 14.4141V15.5859H49.3789V13.7109H55.0137V13.4961C55.0137 13.1055 54.9421 12.7572 54.7988 12.4512C54.6621 12.1387 54.4538 11.8913 54.1738 11.709C53.8939 11.5267 53.5358 11.4355 53.0996 11.4355C52.7285 11.4355 52.4095 11.5169 52.1426 11.6797C51.8757 11.8424 51.6576 12.0703 51.4883 12.3633C51.3255 12.6562 51.2018 13.0013 51.1172 13.3984C51.0391 13.7891 51 14.2188 51 14.6875V15.0781C51 15.5013 51.0586 15.8919 51.1758 16.25C51.2995 16.6081 51.472 16.9173 51.6934 17.1777C51.9212 17.4382 52.1947 17.64 52.5137 17.7832C52.8392 17.9264 53.207 17.998 53.6172 17.998C54.125 17.998 54.597 17.9004 55.0332 17.7051C55.4759 17.5033 55.8568 17.2005 56.1758 16.7969L57.543 18.2812C57.3216 18.6003 57.0189 18.9062 56.6348 19.1992C56.2572 19.4922 55.8014 19.7331 55.2676 19.9219C54.7337 20.1042 54.125 20.1953 53.4414 20.1953Z" fill="#1E293B"/>
<path d="M43.627 5.78125V20H40.707V5.78125H43.627ZM48.002 5.78125V8.07617H36.4004V5.78125H48.002Z" fill="#1E293B"/>
<defs>
<clipPath id="clip0_1404_19">
<rect width="24" height="24" fill="white"/>
</clipPath>
<clipPath id="clip1_1404_19">
<path d="M0 0H24V24H0V0Z" fill="white"/>
</clipPath>
</defs>
</svg>
